<?xml version="1.0" encoding="utf-8"?>
<!DOCTYPE svg PUBLIC "-//W3C//DTD SVG 1.1//EN" "http://www.w3.org/Graphics/SVG/1.1/DTD/svg11.dtd">
<svg xmlns="http://www.w3.org/2000/svg">
	<circle cx="70" cy="70" r="70" style="fill:#35AAE2"/>
	<path d="m32.97254,24.48075c0,0 36.97534,16.10942 -1.38081,35.90105c0,0 3.52888,-4.29573 -1.22755,-7.97789c-4.97966,-3.85567 -13.96137,-9.51239 2.60836,-27.92316z" fill="#FFFFFF"/>
	<path d="m28.08552,103.76994c0,0 -37.58253,-16.37422 1.40318,-36.49089c0,0 -3.5864,4.36647 1.24763,8.10981c5.06202,3.91792 14.19101,9.66761 -2.6508,28.38108z" fill="#FFFFFF"/>
	<path d="m132.94743,57.50846l-23.04744,-7.64208c0,0 -27.53564,-15.89059 -41.56595,-1.9816c-10.36018,12.40396 -20.70292,28.7895 -35.09713,17.14448c-0.00002,0 61.78316,100.76134 99.71052,-7.52079z" fill="#FFFFFF"/>
	<circle cx="92" cy="68" r="22" style="fill:#35AAE2"/>
	<circle cx="97" cy="61" r="10" style="fill:#fff"/>
</svg> 	
